<svg viewBox="0 0 320 240" xmlns="http://www.w3.org/2000/svg">
  <defs><linearGradient id="sky" x1="0" y1="0" x2="0" y2="1"><stop offset="0" stop-color="#BFD9E6"/><stop offset="1" stop-color="#E9F1EE"/></linearGradient>
  <linearGradient id="glass" x1="0" y1="0" x2="1" y2="1"><stop offset="0" stop-color="#9DB9C4"/><stop offset=".5" stop-color="#C9DCE2"/><stop offset="1" stop-color="#86A5B1"/></linearGradient></defs>
  <rect width="320" height="240" fill="url(#sky)"/>
  <rect x="40" y="18" width="240" height="172" fill="#E4DCCB"/>
  <g fill="#A9BFC7"><rect x="56" y="30" width="34" height="26"/><rect x="104" y="30" width="34" height="26"/><rect x="182" y="30" width="34" height="26"/><rect x="230" y="30" width="34" height="26"/><rect x="56" y="70" width="34" height="26"/><rect x="104" y="70" width="34" height="26"/><rect x="182" y="70" width="34" height="26"/><rect x="230" y="70" width="34" height="26"/></g>
  <rect x="112" y="104" width="96" height="86" fill="#5E6B5B"/>
  <rect x="120" y="112" width="80" height="78" fill="url(#glass)"/>
  <line x1="160" y1="112" x2="160" y2="190" stroke="#5E6B5B" stroke-width="3"/>
  <g stroke="#DCE6E3" stroke-width="2" opacity=".7"><line x1="128" y1="170" x2="146" y2="120"/><line x1="170" y1="178" x2="190" y2="124"/></g>
  <circle cx="160" cy="62" r="24" fill="#3F6B4F"/><text x="160" y="72" font-family="Arial, sans-serif" font-size="28" font-weight="700" fill="#F8F6F1" text-anchor="middle">A</text>
  <rect x="0" y="190" width="320" height="50" fill="#B9B2A4"/><rect x="0" y="190" width="320" height="6" fill="#9C9588"/>
  <g stroke="#CFC8BA" stroke-width="1.5"><line x1="60" y1="196" x2="30" y2="240"/><line x1="130" y1="196" x2="120" y2="240"/><line x1="190" y1="196" x2="200" y2="240"/><line x1="260" y1="196" x2="290" y2="240"/></g>
  <g><rect x="20" y="150" width="6" height="40" fill="#6B5A45"/><circle cx="23" cy="140" r="20" fill="#6E9A6A"/><circle cx="14" cy="130" r="12" fill="#7FAB79"/>
  <rect x="294" y="150" width="6" height="40" fill="#6B5A45"/><circle cx="297" cy="140" r="20" fill="#6E9A6A"/><circle cx="306" cy="130" r="12" fill="#7FAB79"/></g>
</svg>
